PathFileType	4	(X/Y/Z)	./resultDataOpenSim/trcMotMarkerGrf/sub10/qtm-12-02.trc
DataRate	CameraRate	NumFrames	NumMarkers	Units	OrigDataRate	OrigDataStartFrame	OrigNumFrames
250.000000	250.000000	8	24	m	250.000000	1	461
Frame#	Time	L.Toe.Tip			R.Toe.Tip			L.Ankle.Lat			R.Ankle.Lat			L.Ankle.Med			R.Ankle.Med			L.Heel			R.Heel			L.Knee.Lat			R.Knee.Lat			L.Knee.Med			R.Knee.Med			L.Thigh.Upper			R.Thigh.Upper			L.ASIS			R.ASIS			V.Sacral			L.Acromium			R.Acromium			C7			L.Elbow			R.Elbow			L.Wrist.Lat			R.Wrist.Lat
		X1	Y1	Z1	X2	Y2	Z2	X3	Y3	Z3	X4	Y4	Z4	X5	Y5	Z5	X6	Y6	Z6	X7	Y7	Z7	X8	Y8	Z8	X9	Y9	Z9	X10	Y10	Z10	X11	Y11	Z11	X12	Y12	Z12	X13	Y13	Z13	X14	Y14	Z14	X15	Y15	Z15	X16	Y16	Z16	X17	Y17	Z17	X18	Y18	Z18	X19	Y19	Z19	X20	Y20	Z20	X21	Y21	Z21	X22	Y22	Z22	X23	Y23	Z23	X24	Y24	Z24

1	0	-1.5949372	0.037368308	-0.17028684	-1.0672772	0.086540938	0.021389958	-1.7258297	0.070741243	-0.21007111	-1.2089427	0.062429803	0.043144033	-1.714455	0.096788109	-0.12735119	-1.1877115	0.096715828	-0.035471448	NaN	NaN	NaN	-1.2419492	0.025892432	-0.012199742	-1.6006205	0.43741778	-0.23789059	-1.2814419	0.45713202	0.067701416	-1.6084763	0.41913557	-0.11867052	-1.2572265	0.46427578	-0.057821001	-1.4640985	0.80937194	-0.288765	-1.4396209	0.84291736	0.096322887	-1.3840708	0.90693305	-0.22730264	-1.3725749	0.92853651	0.019063285	-1.5746858	0.9496211	-0.094019223	-1.3453849	1.3841347	-0.25771606	-1.4217141	1.392536	0.052474604	-1.4566892	1.4268159	-0.122327	-1.3998363	1.0345432	-0.29594936	NaN	NaN	NaN	-1.1798427	0.91430268	-0.28436732	-1.5598619	0.88272585	0.18564215
2	0.004	-1.5949495	0.037378521	-0.17027341	-1.0523498	0.088911473	0.022273347	-1.7264867	0.071388612	-0.20928038	-1.1937795	0.062804298	0.044172676	-1.7136598	0.097536031	-0.12694242	-1.1734886	0.097420124	-0.0345044	NaN	NaN	NaN	-1.2260479	0.025517066	-0.01099164	-1.597606	0.43745059	-0.23741797	-1.2757112	0.45545798	0.068334496	-1.6046948	0.41880945	-0.11814409	-1.2516721	0.46256216	-0.057480246	-1.4593133	0.80871073	-0.28860189	-1.4335853	0.8416909	0.096837754	-1.3789599	0.90599545	-0.2271043	-1.3671147	0.92737096	0.019220504	-1.5684	0.94698827	-0.09460875	-1.3400431	1.3830124	-0.2571623	-1.4167804	1.3913206	0.053171868	-1.451525	1.4256364	-0.12177531	-1.3934894	1.0331682	-0.29515745	NaN	NaN	NaN	-1.1728224	0.91477739	-0.28290122	-1.5574807	0.88180027	0.18589063
3	0.008	-1.5947884	0.03741601	-0.17038157	-1.0377614	0.091339759	0.022975215	-1.7274791	0.072003373	-0.20838293	-1.17866	0.063347148	0.045286448	-1.7130744	0.09835624	-0.1264981	-1.1594661	0.098191562	-0.033555433	NaN	NaN	NaN	-1.2104079	0.025269611	-0.0097756088	-1.5945261	0.43747967	-0.23694728	-1.2700217	0.45381896	0.068980322	-1.6008934	0.41859251	-0.11761811	-1.2461622	0.46086561	-0.057146048	-1.4545156	0.80803747	-0.28843412	-1.427488	0.84044225	0.09734618	-1.3737906	0.905092	-0.22687818	-1.3616326	0.92621931	0.019368698	-1.5623037	0.9448284	-0.09459163	-1.3346968	1.3818958	-0.25658899	-1.4117382	1.3900772	0.053827558	-1.4464239	1.4244547	-0.12153602	-1.3872498	1.0318042	-0.29461255	NaN	NaN	NaN	-1.165811	0.91523402	-0.28144454	-1.5550536	0.88088631	0.18615061
4	0.012	-1.5943765	0.037484697	-0.1706567	-1.0236435	0.093840303	0.023442385	-1.7284588	0.072700087	-0.20750138	-1.1636965	0.064122101	0.046503375	-1.7126133	0.099258438	-0.12602815	-1.1457783	0.099059636	-0.032625686	NaN	NaN	NaN	-1.1951897	0.025214375	-0.0085321124	-1.5913185	0.43750912	-0.23647692	-1.2643991	0.4522269	0.069632017	-1.5970105	0.41849231	-0.11707972	-1.2406936	0.45919807	-0.056824944	-1.4496587	0.80736736	-0.28823028	-1.421294	0.83915651	0.097841117	-1.3685223	0.90423419	-0.22662343	-1.3559829	0.92509183	0.01953063	-1.5564024	0.94319053	-0.093903428	-1.3293501	1.3807846	-0.255999	-1.4065388	1.3888041	0.05445125	-1.4413638	1.4232709	-0.12156965	-1.3810953	1.0304639	-0.29423745	NaN	NaN	NaN	-1.158776	0.91566508	-0.27997028	-1.5525218	0.87997954	0.18642055
5	0.016	-1.5938184	0.037548058	-0.17100172	-1.0099541	0.096380242	0.023744953	-1.7289484	0.073605967	-0.20680248	-1.1491038	0.065075478	0.047760465	-1.7119669	0.10020541	-0.12558136	-1.1324985	0.10001156	-0.031718656	NaN	NaN	NaN	-1.180489	0.025354617	-0.0072516035	-1.5879461	0.43754469	-0.23601194	-1.2587791	0.4507113	0.070277305	-1.5930185	0.41844244	-0.11651143	-1.235244	0.45757494	-0.056517994	-1.4446926	0.8067378	-0.28793249	-1.4150114	0.83783152	0.098319943	-1.3631602	0.90341319	-0.2263622	-1.3500674	0.92399212	0.019721435	-1.5505829	0.94182836	-0.092865033	-1.3240107	1.3796937	-0.25540186	-1.401214	1.3875301	0.055087863	-1.4362943	1.4220857	-0.12164805	-1.3749691	1.0291599	-0.29388967	NaN	NaN	NaN	-1.1517147	0.91606876	-0.27847014	-1.5498743	0.87907132	0.18668627
6	0.02	-1.5933903	0.037545707	-0.17119851	-0.99662475	0.098898471	0.023993302	-1.7289464	0.074727734	-0.20629035	-1.1350731	0.066105238	0.048970566	-1.7110129	0.1011686	-0.12519178	-1.1196443	0.10101519	-0.030850726	NaN	NaN	NaN	-1.1663508	0.025655047	-0.0059496913	-1.5844012	0.43758942	-0.23555941	-1.2530105	0.44933149	0.070913488	-1.5889188	0.41837604	-0.11592331	-1.2297878	0.45601575	-0.056207167	-1.4396041	0.8061751	-0.28752894	-1.4086381	0.83647368	0.098787562	-1.3577273	0.9026202	-0.2261156	-1.3439286	0.92292051	0.019918395	-1.5447445	0.94052127	-0.091757827	-1.318672	1.3786499	-0.25479397	-1.3957793	1.3862935	0.055787912	-1.4312034	1.4209342	-0.12161528	-1.3688531	1.0279006	-0.29357921	NaN	NaN	NaN	-1.1446854	0.9164449	-0.2769919	-1.5471512	0.87815976	0.18693126
7	0.024	-1.5933299	0.037458361	-0.17109352	-0.98369289	0.10133607	0.024232253	-1.7286687	0.076014933	-0.20589182	-1.1216864	0.0671194	0.050080459	-1.7100013	0.10214505	-0.12484597	-1.1072291	0.10203303	-0.030037985	NaN	NaN	NaN	-1.1527858	0.026054669	-0.0046472937	-1.5806933	0.43764268	-0.23511725	-1.2469956	0.44812821	0.071541369	-1.5847172	0.41825819	-0.11534268	-1.2242996	0.45454039	-0.055864483	-1.4344261	0.80567581	-0.28708277	-1.4021657	0.83508923	0.099252135	-1.3522313	0.90186154	-0.22589156	-1.3376535	0.92188221	0.020092489	-1.5388468	0.93918478	-0.090682661	-1.3133266	1.377663	-0.25416324	-1.3901953	1.3851166	0.056576541	-1.4261302	1.4199303	-0.12137322	-1.3627232	1.0266971	-0.29323318	NaN	NaN	NaN	-1.1377512	0.91679532	-0.27558547	-1.5443893	0.87724341	0.18714502
8	0.028	-1.5935908	0.03733944	-0.17076856	-0.97126858	0.10366373	0.024410805	-1.7281937	0.07743166	-0.20557609	-1.108943	0.068050646	0.051076159	-1.7091738	0.10315428	-0.12451141	-1.0952842	0.103026	-0.029284705	NaN	NaN	NaN	-1.1397811	0.026490128	-0.0033393517	-1.5768291	0.43769697	-0.23468402	-1.2407466	0.44709768	0.072161832	-1.5804467	0.4180896	-0.11477068	-1.2187555	0.45316687	-0.055473927	-1.4292045	0.80521662	-0.28665279	-1.3956159	0.83367746	0.099718287	-1.3466696	0.90114512	-0.22569639	-1.3312853	0.92088385	0.020247294	-1.532885	0.93782477	-0.089631969	-1.3079752	1.3767229	-0.25349805	-1.3844718	1.3839897	0.057422539	-1.4211289	1.4192033	-0.12083258	-1.3565435	1.0255648	-0.29267247	NaN	NaN	NaN	-1.1309205	0.91712472	-0.27425249	-1.5415769	0.87632172	0.18732763
